<?xml version="1.0" encoding="utf-8"?>
<!-- Generator: Adobe Illustrator 26.1.0, SVG Export Plug-In . SVG Version: 6.00 Build 0)  -->
<svg version="1.1" id="Layer_1" xmlns="http://www.w3.org/2000/svg" xmlns:xlink="http://www.w3.org/1999/xlink" x="0px" y="0px"
	 viewBox="0 0 40 40" style="enable-background:new 0 0 40 40;" xml:space="preserve">
<style type="text/css">
	.st0{fill:#34495E;}
</style>
<g>
	<path class="st0" d="M36.4,20c0,9-7.3,16.4-16.4,16.4c-9.1,0-16.4-7.3-16.3-16.4c0-9,7.4-16.4,16.4-16.3
		C29.1,3.7,36.4,10.8,36.4,20z M27.7,22.3c0.4-1,0.8-1.8,1.1-2.6c0.4-0.9,0.4-1.7-0.1-2.6c-0.5-1-1.1-2.1-1.6-3.2
		c-0.5-1.1-1.3-1.8-2.5-2.1c-0.3-0.1-0.6-0.2-0.9-0.2c-3.3-0.7-6.6-1.4-9.5-3.2c-0.5-0.3-0.9-0.2-1.3,0.1c-1.6,1.3-2.3,3.1-2.7,5
		c-0.1,0.5-0.1,1.2,0.6,1.5c1.5,0.7,2.4,2,3,3.4c0.3,0.6,0.7,1.1,1.3,1.5c0.9,0.6,1.9,1,2.9,1.3c0.9,0.2,1.6,0.6,2.3,1.2
		c1.3,1.2,2.8,2,4.5,2.4c0.7,0.2,1.3,0.1,1.8-0.5c0.5-0.6,0.4-1.3,0.1-1.9c-0.4-1-1.2-1.7-2.1-2.2c-0.8-0.5-1.7-1-2.5-1.5
		c-0.6-0.4-1-0.9-1.2-1.6c0-0.1-0.1-0.3,0-0.4c0.3-0.3,0.6-0.6,1-0.9c0.2-0.1,0.5,0.1,0.8,0.1c1.1,0,1.8,0.6,2.4,1.5
		c0.4,0.6,0.5,1.1,0.2,1.7c-0.1,0.2-0.2,0.4,0.1,0.6C26.4,20.3,27.2,21.1,27.7,22.3z M29.2,26.8c0-0.8-0.4-1.6-1.1-2.3
		c-0.2-0.2-0.3-0.2-0.4,0.1c-0.6,1.1-1.4,1.4-2.7,1.3c-0.6-0.1-1.3-0.3-1.8-0.6c-0.4-0.2-0.6-0.1-0.8,0.3c-0.6,1.3-0.3,2.9,0.7,4
		c1,1,2.6,1.4,3.9,0.8C28.4,29.8,29.2,28.4,29.2,26.8z"/>
</g>
</svg>
