<?xml version="1.0" encoding="utf-8"?>
<!-- Generator: Adobe Illustrator 26.1.0, SVG Export Plug-In . SVG Version: 6.00 Build 0)  -->
<svg version="1.1" id="Layer_1" xmlns="http://www.w3.org/2000/svg" xmlns:xlink="http://www.w3.org/1999/xlink" x="0px" y="0px"
	 viewBox="0 0 40 40" style="enable-background:new 0 0 40 40;" xml:space="preserve">
<style type="text/css">
	.st0{fill:#34495E;}
	.st1{fill:#FFFFFF;}
</style>
<g>
	<path class="st0" d="M36.4,14.1c0,1.4-0.2,2.9-0.7,4.4c-0.5,1.7-1.4,3.1-2.6,4.4c-1.1,1.3-2.4,2.5-3.7,3.7c-2.5,2.2-5,4.3-7.4,6.5
		c-0.7,0.6-1.3,1.2-2,1.8C20,35,20,35,19.9,34.9c-2.9-2.8-6-5.4-9.1-8.1c-1.4-1.2-2.8-2.5-4-3.9c-1.3-1.5-2.3-3.3-2.8-5.3
		c-0.4-1.7-0.5-3.3-0.4-5c0.3-3.7,2.9-6.7,6.6-7.4c3.2-0.6,5.9,0.3,8.2,2.5c0.6,0.6,1.1,1.2,1.5,1.9c0.1,0.2,0.1,0.2,0.2,0
		c0.9-1.5,2.1-2.7,3.7-3.5c1.7-0.9,3.5-1.3,5.4-1c2,0.3,3.7,1.1,5.1,2.6c1.3,1.4,2,3,2.2,4.8C36.4,12.9,36.4,13.5,36.4,14.1z"/>
</g>
<g>
	<path class="st1" d="M33.7,15.1c0,1.2-0.2,2.5-0.6,3.7c-0.5,1.4-1.2,2.6-2.1,3.7c-0.9,1.1-2,2.1-3.1,3.1c-2.1,1.8-4.2,3.6-6.2,5.4
		c-0.5,0.5-1.1,1-1.6,1.5c-0.1,0.1-0.1,0.1-0.2,0c-2.5-2.3-5-4.5-7.6-6.8c-1.2-1-2.3-2.1-3.4-3.3c-1.1-1.3-1.9-2.7-2.3-4.4
		c-0.3-1.4-0.5-2.8-0.3-4.2c0.2-3.1,2.5-5.6,5.5-6.2c2.6-0.5,4.9,0.2,6.8,2.1c0.5,0.5,0.9,1,1.3,1.6c0.1,0.1,0.1,0.1,0.2,0
		c0.8-1.2,1.8-2.2,3.1-3c1.4-0.8,2.9-1.1,4.5-0.8c1.7,0.2,3.1,0.9,4.2,2.1c1.1,1.1,1.7,2.5,1.8,4C33.7,14.1,33.8,14.5,33.7,15.1z"/>
</g>
</svg>
